<svg xmlns="http://www.w3.org/2000/svg" xmlns:xlink="http://www.w3.org/1999/xlink" width="500" zoomAndPan="magnify" viewBox="0 0 375 374.999991" height="500" preserveAspectRatio="xMidYMid meet" version="1.0"><defs><g/></defs><g fill="#d9d9d9" fill-opacity="1"><g transform="translate(18.750003, 137.519427)"><g><path d="M 2.59375 -3.515625 C 4.613281 -3.515625 5.929688 -3.707031 6.546875 -4.09375 C 7.160156 -4.488281 7.550781 -4.910156 7.71875 -5.359375 C 7.894531 -5.804688 7.984375 -6.351562 7.984375 -7 L 7.953125 -40.90625 C 7.953125 -42.289062 7.707031 -43.15625 7.21875 -43.5 C 6.382812 -44.09375 4.84375 -44.390625 2.59375 -44.390625 L 2.59375 -47.90625 L 20.53125 -47.90625 L 20.53125 -44.390625 C 18.507812 -44.390625 17.191406 -44.191406 16.578125 -43.796875 C 15.960938 -43.398438 15.566406 -42.976562 15.390625 -42.53125 C 15.222656 -42.09375 15.140625 -41.550781 15.140625 -40.90625 L 15.171875 -7 C 15.171875 -5.613281 15.414062 -4.75 15.90625 -4.40625 C 16.738281 -3.8125 18.28125 -3.515625 20.53125 -3.515625 L 20.53125 0 L 2.59375 0 Z M 2.59375 -3.515625 "/></g></g></g><g fill="#d9d9d9" fill-opacity="1"><g transform="translate(40.49702, 137.519427)"><g><path d="M 2.96875 -25.453125 C 2.332031 -26.835938 1.765625 -27.753906 1.265625 -28.203125 C 0.765625 -28.648438 -0.296875 -28.875 -1.921875 -28.875 L -1.921875 -32.390625 L 15.171875 -32.390625 L 15.171875 -28.875 C 12.804688 -28.875 11.359375 -28.632812 10.828125 -28.15625 C 10.296875 -27.675781 10.296875 -26.773438 10.828125 -25.453125 L 18.046875 -7.953125 L 25.734375 -25.453125 C 26.273438 -26.671875 26.175781 -27.546875 25.4375 -28.078125 C 24.695312 -28.609375 23.082031 -28.875 20.59375 -28.875 L 20.59375 -32.390625 L 35.15625 -32.390625 L 35.15625 -28.875 C 33.820312 -28.875 32.800781 -28.597656 32.09375 -28.046875 C 31.394531 -27.503906 30.78125 -26.640625 30.25 -25.453125 L 18.515625 0 L 15.046875 0 Z M 2.96875 -25.453125 "/></g></g></g><g fill="#d9d9d9" fill-opacity="1"><g transform="translate(73.101029, 137.519427)"><g><path d="M 30.5 -7.640625 C 30.5 -5.097656 31 -3.828125 32 -3.828125 C 32.957031 -3.828125 33.660156 -4.148438 34.109375 -4.796875 C 34.554688 -5.453125 34.78125 -6.628906 34.78125 -8.328125 L 38.125 -8.328125 C 38.15625 -8.054688 38.171875 -7.625 38.171875 -7.03125 C 38.171875 -5.113281 37.691406 -3.453125 36.734375 -2.046875 C 35.554688 -0.253906 33.691406 0.640625 31.140625 0.640625 C 29.472656 0.640625 28.054688 0.171875 26.890625 -0.765625 C 25.722656 -1.703125 24.914062 -2.9375 24.46875 -4.46875 C 21.375 -1.0625 17.46875 0.640625 12.75 0.640625 C 10.144531 0.640625 7.878906 -0.117188 5.953125 -1.640625 C 4.023438 -3.160156 3.0625 -5.285156 3.0625 -8.015625 C 3.0625 -12.742188 6.554688 -16.234375 13.546875 -18.484375 C 17.972656 -19.890625 20.617188 -20.863281 21.484375 -21.40625 C 22.359375 -21.957031 22.925781 -22.515625 23.1875 -23.078125 C 23.457031 -23.640625 23.59375 -24.269531 23.59375 -24.96875 C 23.59375 -26.226562 22.972656 -27.273438 21.734375 -28.109375 C 20.503906 -28.953125 18.898438 -29.375 16.921875 -29.375 C 14.941406 -29.375 13.195312 -28.84375 11.6875 -27.78125 C 12.75 -27 13.28125 -25.988281 13.28125 -24.75 C 13.28125 -23.519531 12.867188 -22.53125 12.046875 -21.78125 C 11.234375 -21.03125 10.242188 -20.65625 9.078125 -20.65625 C 7.921875 -20.65625 6.960938 -21.003906 6.203125 -21.703125 C 5.453125 -22.410156 5.078125 -23.394531 5.078125 -24.65625 C 5.078125 -27.144531 6.332031 -29.160156 8.84375 -30.703125 C 11.351562 -32.242188 14.410156 -33.015625 18.015625 -33.015625 C 24.441406 -33.015625 28.367188 -30.929688 29.796875 -26.765625 C 30.265625 -25.378906 30.5 -23.78125 30.5 -21.96875 Z M 16.421875 -15.578125 C 14.546875 -14.773438 13.140625 -13.738281 12.203125 -12.46875 C 11.265625 -11.207031 10.796875 -9.828125 10.796875 -8.328125 C 10.796875 -6.835938 11.195312 -5.707031 12 -4.9375 C 12.8125 -4.175781 13.828125 -3.796875 15.046875 -3.796875 C 17.515625 -3.796875 19.554688 -4.660156 21.171875 -6.390625 C 22.785156 -8.128906 23.59375 -10.554688 23.59375 -13.671875 L 23.59375 -18.59375 C 22.238281 -17.882812 20.796875 -17.242188 19.265625 -16.671875 C 17.742188 -16.097656 16.796875 -15.734375 16.421875 -15.578125 Z M 16.421875 -15.578125 "/></g></g></g><g fill="#d9d9d9" fill-opacity="1"><g transform="translate(109.217593, 137.519427)"><g><path d="M 22.421875 -28.234375 C 18.929688 -28.234375 16.097656 -27.144531 13.921875 -24.96875 L 13.921875 -6.859375 C 13.921875 -5.546875 14.132812 -4.71875 14.5625 -4.375 C 15.3125 -3.800781 16.71875 -3.515625 18.78125 -3.515625 L 18.78125 0 L 2.5625 0 L 2.5625 -3.515625 C 4.382812 -3.515625 5.53125 -3.695312 6 -4.0625 C 6.46875 -4.4375 6.753906 -4.835938 6.859375 -5.265625 C 6.972656 -5.691406 7.03125 -6.222656 7.03125 -6.859375 L 7.03125 -24.265625 C 7.03125 -25.804688 6.894531 -26.804688 6.625 -27.265625 C 6.363281 -27.734375 5.632812 -27.96875 4.4375 -27.96875 L 2.484375 -27.96875 L 2.484375 -31.484375 C 4.492188 -31.484375 6.066406 -31.640625 7.203125 -31.953125 C 8.335938 -32.265625 9.144531 -32.488281 9.625 -32.625 C 10.101562 -32.757812 10.617188 -32.828125 11.171875 -32.828125 C 12.304688 -32.828125 13.046875 -32.5 13.390625 -31.84375 C 13.742188 -31.195312 13.921875 -30.164062 13.921875 -28.75 C 16.203125 -30.664062 18.84375 -31.960938 21.84375 -32.640625 C 22.84375 -32.867188 23.820312 -32.984375 24.78125 -32.984375 C 31.675781 -32.984375 35.125 -28.421875 35.125 -19.296875 L 35.125 -6.9375 C 35.125 -5.53125 35.328125 -4.609375 35.734375 -4.171875 C 36.140625 -3.734375 37.25 -3.515625 39.0625 -3.515625 L 39.0625 0 L 23.953125 0 L 23.953125 -3.515625 C 25.890625 -3.515625 27.054688 -3.707031 27.453125 -4.09375 C 27.847656 -4.488281 28.078125 -4.898438 28.140625 -5.328125 C 28.203125 -5.753906 28.234375 -6.289062 28.234375 -6.9375 L 28.234375 -18.875 C 28.234375 -21.832031 27.957031 -23.863281 27.40625 -24.96875 C 26.3125 -27.144531 24.648438 -28.234375 22.421875 -28.234375 Z M 22.421875 -28.234375 "/></g></g></g><g fill="#d9d9d9" fill-opacity="1"><g transform="translate(18.750003, 227.852553)"><g><path d="M 2.625 -3.515625 C 4.625 -3.515625 5.929688 -3.707031 6.546875 -4.09375 C 7.160156 -4.488281 7.550781 -4.910156 7.71875 -5.359375 C 7.894531 -5.804688 7.984375 -6.351562 7.984375 -7 L 7.984375 -40.90625 C 7.984375 -42.289062 7.75 -43.15625 7.28125 -43.5 C 6.425781 -44.09375 4.875 -44.390625 2.625 -44.390625 L 2.625 -47.90625 L 17.6875 -47.90625 L 31.84375 -10.953125 L 45.40625 -47.90625 L 60.328125 -47.90625 L 60.328125 -44.390625 C 58.304688 -44.390625 56.984375 -44.191406 56.359375 -43.796875 C 55.742188 -43.398438 55.351562 -42.976562 55.1875 -42.53125 C 55.019531 -42.09375 54.9375 -41.550781 54.9375 -40.90625 L 54.9375 -7 C 54.9375 -5.632812 55.179688 -4.769531 55.671875 -4.40625 C 56.515625 -3.8125 58.066406 -3.515625 60.328125 -3.515625 L 60.328125 0 L 42.609375 0 L 42.609375 -3.515625 C 44.609375 -3.515625 45.898438 -3.707031 46.484375 -4.09375 C 47.066406 -4.488281 47.429688 -4.910156 47.578125 -5.359375 C 47.734375 -5.804688 47.8125 -6.351562 47.8125 -7 L 47.8125 -41.078125 L 32.984375 0 L 29.453125 0 L 13.09375 -41.109375 L 13.09375 -7 C 13.09375 -5.613281 13.328125 -4.75 13.796875 -4.40625 C 14.648438 -3.8125 16.203125 -3.515625 18.453125 -3.515625 L 18.453125 0 L 2.625 0 Z M 2.625 -3.515625 "/></g></g></g><g fill="#d9d9d9" fill-opacity="1"><g transform="translate(80.348575, 227.852553)"><g><path d="M 30.5 -7.640625 C 30.5 -5.097656 31 -3.828125 32 -3.828125 C 32.957031 -3.828125 33.660156 -4.148438 34.109375 -4.796875 C 34.554688 -5.453125 34.78125 -6.628906 34.78125 -8.328125 L 38.125 -8.328125 C 38.15625 -8.054688 38.171875 -7.625 38.171875 -7.03125 C 38.171875 -5.113281 37.691406 -3.453125 36.734375 -2.046875 C 35.554688 -0.253906 33.691406 0.640625 31.140625 0.640625 C 29.472656 0.640625 28.054688 0.171875 26.890625 -0.765625 C 25.722656 -1.703125 24.914062 -2.9375 24.46875 -4.46875 C 21.375 -1.0625 17.46875 0.640625 12.75 0.640625 C 10.144531 0.640625 7.878906 -0.117188 5.953125 -1.640625 C 4.023438 -3.160156 3.0625 -5.285156 3.0625 -8.015625 C 3.0625 -12.742188 6.554688 -16.234375 13.546875 -18.484375 C 17.972656 -19.890625 20.617188 -20.863281 21.484375 -21.40625 C 22.359375 -21.957031 22.925781 -22.515625 23.1875 -23.078125 C 23.457031 -23.640625 23.59375 -24.269531 23.59375 -24.96875 C 23.59375 -26.226562 22.972656 -27.273438 21.734375 -28.109375 C 20.503906 -28.953125 18.898438 -29.375 16.921875 -29.375 C 14.941406 -29.375 13.195312 -28.84375 11.6875 -27.78125 C 12.75 -27 13.28125 -25.988281 13.28125 -24.75 C 13.28125 -23.519531 12.867188 -22.53125 12.046875 -21.78125 C 11.234375 -21.03125 10.242188 -20.65625 9.078125 -20.65625 C 7.921875 -20.65625 6.960938 -21.003906 6.203125 -21.703125 C 5.453125 -22.410156 5.078125 -23.394531 5.078125 -24.65625 C 5.078125 -27.144531 6.332031 -29.160156 8.84375 -30.703125 C 11.351562 -32.242188 14.410156 -33.015625 18.015625 -33.015625 C 24.441406 -33.015625 28.367188 -30.929688 29.796875 -26.765625 C 30.265625 -25.378906 30.5 -23.78125 30.5 -21.96875 Z M 16.421875 -15.578125 C 14.546875 -14.773438 13.140625 -13.738281 12.203125 -12.46875 C 11.265625 -11.207031 10.796875 -9.828125 10.796875 -8.328125 C 10.796875 -6.835938 11.195312 -5.707031 12 -4.9375 C 12.8125 -4.175781 13.828125 -3.796875 15.046875 -3.796875 C 17.515625 -3.796875 19.554688 -4.660156 21.171875 -6.390625 C 22.785156 -8.128906 23.59375 -10.554688 23.59375 -13.671875 L 23.59375 -18.59375 C 22.238281 -17.882812 20.796875 -17.242188 19.265625 -16.671875 C 17.742188 -16.097656 16.796875 -15.734375 16.421875 -15.578125 Z M 16.421875 -15.578125 "/></g></g></g><g fill="#d9d9d9" fill-opacity="1"><g transform="translate(116.465144, 227.852553)"><g><path d="M 2.625 -3.515625 C 4.445312 -3.515625 5.59375 -3.695312 6.0625 -4.0625 C 6.53125 -4.4375 6.8125 -4.835938 6.90625 -5.265625 C 7.007812 -5.691406 7.0625 -6.222656 7.0625 -6.859375 L 7.0625 -24.46875 C 7.0625 -26 6.925781 -27 6.65625 -27.46875 C 6.394531 -27.9375 5.675781 -28.171875 4.5 -28.171875 L 2.5625 -28.171875 L 2.5625 -31.6875 C 4.582031 -31.6875 6.148438 -31.835938 7.265625 -32.140625 C 8.378906 -32.453125 9.175781 -32.675781 9.65625 -32.8125 C 10.132812 -32.945312 10.648438 -33.015625 11.203125 -33.015625 C 12.296875 -33.015625 13.023438 -32.695312 13.390625 -32.0625 C 13.765625 -31.425781 13.953125 -30.382812 13.953125 -28.9375 L 13.953125 -28.296875 C 15.785156 -30.441406 17.863281 -31.890625 20.1875 -32.640625 C 21.007812 -32.890625 21.835938 -33.015625 22.671875 -33.015625 C 24.265625 -33.015625 25.503906 -32.554688 26.390625 -31.640625 C 27.273438 -30.734375 27.71875 -29.609375 27.71875 -28.265625 C 27.71875 -26.921875 27.289062 -25.820312 26.4375 -24.96875 C 25.59375 -24.125 24.5625 -23.703125 23.34375 -23.703125 C 22.15625 -23.703125 21.171875 -24.125 20.390625 -24.96875 C 19.609375 -25.820312 19.265625 -26.890625 19.359375 -28.171875 C 18.484375 -28.035156 17.550781 -27.632812 16.5625 -26.96875 C 15.570312 -26.300781 14.703125 -25.390625 13.953125 -24.234375 L 13.953125 -7.15625 C 13.953125 -6.34375 14.019531 -5.695312 14.15625 -5.21875 C 14.300781 -4.738281 14.675781 -4.332031 15.28125 -4 C 15.882812 -3.675781 17.710938 -3.515625 20.765625 -3.515625 L 20.765625 0 L 2.625 0 Z M 2.625 -3.515625 "/></g></g></g><g fill="#d9d9d9" fill-opacity="1"><g transform="translate(143.800335, 227.852553)"><g><path d="M 15.9375 0.640625 C 9.226562 0.640625 5.875 -3.085938 5.875 -10.546875 L 5.875 -26.5 C 5.875 -27.332031 5.769531 -27.878906 5.5625 -28.140625 C 5.363281 -28.410156 4.9375 -28.546875 4.28125 -28.546875 L 1.65625 -28.546875 L 1.65625 -32.390625 L 2.84375 -32.390625 C 4.457031 -32.390625 5.640625 -32.898438 6.390625 -33.921875 C 7.148438 -34.941406 7.566406 -36.625 7.640625 -38.96875 L 7.671875 -41.8125 L 12.78125 -41.8125 L 12.78125 -32.390625 L 22.578125 -32.390625 L 22.578125 -28.546875 L 12.78125 -28.546875 L 12.78125 -10.640625 C 12.78125 -6.671875 13.691406 -4.304688 15.515625 -3.546875 C 16.023438 -3.328125 16.535156 -3.21875 17.046875 -3.21875 C 19.285156 -3.21875 20.742188 -5.0625 21.421875 -8.75 L 25.140625 -8.75 C 24.921875 -4.382812 23.097656 -1.488281 19.671875 -0.0625 C 18.566406 0.40625 17.320312 0.640625 15.9375 0.640625 Z M 15.9375 0.640625 "/></g></g></g><g fill="#d9d9d9" fill-opacity="1"><g transform="translate(169.219585, 227.852553)"><g><path d="M 10.765625 -38.9375 C 9.378906 -38.9375 8.203125 -39.394531 7.234375 -40.3125 C 6.265625 -41.238281 5.78125 -42.375 5.78125 -43.71875 C 5.78125 -45.082031 6.269531 -46.238281 7.25 -47.1875 C 8.226562 -48.132812 9.398438 -48.609375 10.765625 -48.609375 C 12.128906 -48.609375 13.300781 -48.132812 14.28125 -47.1875 C 15.257812 -46.238281 15.75 -45.082031 15.75 -43.71875 C 15.75 -42.375 15.265625 -41.238281 14.296875 -40.3125 C 13.328125 -39.394531 12.148438 -38.9375 10.765625 -38.9375 Z M 2.625 -3.515625 C 4.601562 -3.515625 5.84375 -3.695312 6.34375 -4.0625 C 6.84375 -4.4375 7.144531 -4.835938 7.25 -5.265625 C 7.351562 -5.691406 7.40625 -6.222656 7.40625 -6.859375 L 7.40625 -24.46875 C 7.40625 -26 7.269531 -27 7 -27.46875 C 6.738281 -27.9375 6.023438 -28.171875 4.859375 -28.171875 L 2.5625 -28.171875 L 2.5625 -31.6875 C 4.644531 -31.6875 6.28125 -31.835938 7.46875 -32.140625 C 8.664062 -32.453125 9.507812 -32.675781 10 -32.8125 C 10.488281 -32.945312 11.019531 -33.015625 11.59375 -33.015625 C 12.695312 -33.015625 13.425781 -32.691406 13.78125 -32.046875 C 14.132812 -31.398438 14.3125 -30.363281 14.3125 -28.9375 L 14.3125 -6.859375 C 14.3125 -5.523438 14.523438 -4.6875 14.953125 -4.34375 C 15.671875 -3.789062 17.039062 -3.515625 19.0625 -3.515625 L 19.0625 0 L 2.625 0 Z M 2.625 -3.515625 "/></g></g></g><g fill="#d9d9d9" fill-opacity="1"><g transform="translate(189.306123, 227.852553)"><g><path d="M 22.421875 -28.234375 C 18.929688 -28.234375 16.097656 -27.144531 13.921875 -24.96875 L 13.921875 -6.859375 C 13.921875 -5.546875 14.132812 -4.71875 14.5625 -4.375 C 15.3125 -3.800781 16.71875 -3.515625 18.78125 -3.515625 L 18.78125 0 L 2.5625 0 L 2.5625 -3.515625 C 4.382812 -3.515625 5.53125 -3.695312 6 -4.0625 C 6.46875 -4.4375 6.753906 -4.835938 6.859375 -5.265625 C 6.972656 -5.691406 7.03125 -6.222656 7.03125 -6.859375 L 7.03125 -24.265625 C 7.03125 -25.804688 6.894531 -26.804688 6.625 -27.265625 C 6.363281 -27.734375 5.632812 -27.96875 4.4375 -27.96875 L 2.484375 -27.96875 L 2.484375 -31.484375 C 4.492188 -31.484375 6.066406 -31.640625 7.203125 -31.953125 C 8.335938 -32.265625 9.144531 -32.488281 9.625 -32.625 C 10.101562 -32.757812 10.617188 -32.828125 11.171875 -32.828125 C 12.304688 -32.828125 13.046875 -32.5 13.390625 -31.84375 C 13.742188 -31.195312 13.921875 -30.164062 13.921875 -28.75 C 16.203125 -30.664062 18.84375 -31.960938 21.84375 -32.640625 C 22.84375 -32.867188 23.820312 -32.984375 24.78125 -32.984375 C 31.675781 -32.984375 35.125 -28.421875 35.125 -19.296875 L 35.125 -6.9375 C 35.125 -5.53125 35.328125 -4.609375 35.734375 -4.171875 C 36.140625 -3.734375 37.25 -3.515625 39.0625 -3.515625 L 39.0625 0 L 23.953125 0 L 23.953125 -3.515625 C 25.890625 -3.515625 27.054688 -3.707031 27.453125 -4.09375 C 27.847656 -4.488281 28.078125 -4.898438 28.140625 -5.328125 C 28.203125 -5.753906 28.234375 -6.289062 28.234375 -6.9375 L 28.234375 -18.875 C 28.234375 -21.832031 27.957031 -23.863281 27.40625 -24.96875 C 26.3125 -27.144531 24.648438 -28.234375 22.421875 -28.234375 Z M 22.421875 -28.234375 "/></g></g></g><g fill="#d9d9d9" fill-opacity="1"><g transform="translate(228.903328, 227.852553)"><g><path d="M 32.671875 -14.71875 L 10.5 -14.71875 C 10.5 -11.0625 11.367188 -8.226562 13.109375 -6.21875 C 14.847656 -4.21875 16.992188 -3.21875 19.546875 -3.21875 C 22.972656 -3.21875 25.429688 -4.632812 26.921875 -7.46875 L 31.6875 -7.5 C 31.195312 -5.226562 29.796875 -3.300781 27.484375 -1.71875 C 25.171875 -0.144531 22.054688 0.640625 18.140625 0.640625 C 14.222656 0.640625 10.835938 -0.570312 7.984375 -3 C 4.578125 -5.914062 2.875 -10.023438 2.875 -15.328125 C 2.875 -20.628906 4.226562 -24.898438 6.9375 -28.140625 C 9.65625 -31.390625 13.550781 -33.015625 18.625 -33.015625 C 25.28125 -33.015625 29.585938 -30.332031 31.546875 -24.96875 C 32.335938 -22.820312 32.734375 -20.789062 32.734375 -18.875 C 32.734375 -16.957031 32.710938 -15.570312 32.671875 -14.71875 Z M 25.296875 -19.515625 C 25.296875 -26.023438 23.082031 -29.28125 18.65625 -29.28125 C 16.164062 -29.28125 14.222656 -28.3125 12.828125 -26.375 C 11.429688 -24.4375 10.671875 -21.753906 10.546875 -18.328125 L 25.265625 -18.328125 C 25.285156 -18.734375 25.296875 -19.128906 25.296875 -19.515625 Z M 25.296875 -19.515625 "/></g></g></g><g fill="#d9d9d9" fill-opacity="1"><g transform="translate(263.231688, 227.852553)"><g><path d="M 2.78125 -3.609375 L 22.453125 -28.90625 L 12.421875 -28.90625 C 10.015625 -28.90625 8.40625 -27.234375 7.59375 -23.890625 C 7.34375 -22.910156 7.144531 -21.878906 7 -20.796875 L 2.84375 -20.828125 L 3.796875 -32.390625 L 30.1875 -32.390625 L 30.1875 -28.578125 L 10.765625 -3.515625 L 20.828125 -3.515625 C 23.484375 -3.515625 25.1875 -4.863281 25.9375 -7.5625 C 26.1875 -8.476562 26.398438 -9.546875 26.578125 -10.765625 L 30.8125 -10.765625 L 29.859375 0 L 2.78125 0 Z M 2.78125 -3.609375 "/></g></g></g></svg>