<svg xmlns="http://www.w3.org/2000/svg" xmlns:xlink="http://www.w3.org/1999/xlink" width="500" zoomAndPan="magnify" viewBox="0 0 375 374.999991" height="500" preserveAspectRatio="xMidYMid meet" version="1.0"><defs><g/><clipPath id="df9bfe5c01"><path d="M 102.144531 125.578125 L 187.636719 125.578125 L 187.636719 211.828125 L 102.144531 211.828125 Z M 102.144531 125.578125 " clip-rule="nonzero"/></clipPath></defs><g clip-path="url(#df9bfe5c01)"><path stroke-linecap="butt" transform="matrix(0.751236, 0, 0, 0.752044, 102.142819, 125.579713)" fill="none" stroke-linejoin="miter" d="M 0.00227872 -0.00211205 L 113.804382 -0.00211205 L 113.804382 114.685399 L 0.00227872 114.685399 L 0.00227872 -0.00211205 " stroke="#000000" stroke-width="6" stroke-opacity="1" stroke-miterlimit="4"/></g><g fill="#cb6ce6" fill-opacity="1"><g transform="translate(99.134852, 236.522768)"><g><path d="M 1.984375 -14.75 L 4.71875 -14.75 L 4.71875 0 L 1.984375 0 Z M 1.984375 -14.75 "/></g></g></g><g fill="#cb6ce6" fill-opacity="1"><g transform="translate(105.860007, 236.522768)"><g><path d="M 15.46875 -14.75 L 9.046875 0 L 6.34375 0 L -0.109375 -14.75 L 2.859375 -14.75 L 7.78125 -3.375 L 12.734375 -14.75 Z M 15.46875 -14.75 "/></g></g></g><g fill="#cb6ce6" fill-opacity="1"><g transform="translate(121.228769, 236.522768)"><g><path d="M 11.546875 -3.421875 L 4.171875 -3.421875 L 2.71875 0 L -0.109375 0 L 6.53125 -14.75 L 9.234375 -14.75 L 15.890625 0 L 13.03125 0 Z M 10.640625 -5.5625 L 7.859375 -12.015625 L 5.09375 -5.5625 Z M 10.640625 -5.5625 "/></g></g></g><g fill="#cb6ce6" fill-opacity="1"><g transform="translate(137.019177, 236.522768)"><g><path d="M 15.09375 -14.75 L 15.09375 0 L 12.84375 0 L 4.703125 -9.984375 L 4.703125 0 L 1.984375 0 L 1.984375 -14.75 L 4.234375 -14.75 L 12.375 -4.765625 L 12.375 -14.75 Z M 15.09375 -14.75 "/></g></g></g><g fill="#cb6ce6" fill-opacity="1"><g transform="translate(154.09558, 236.522768)"><g/></g></g><g fill="#cb6ce6" fill-opacity="1"><g transform="translate(159.914202, 236.522768)"><g><path d="M 15.53125 0 L 15.515625 -9.78125 L 10.671875 -1.6875 L 9.4375 -1.6875 L 4.59375 -9.65625 L 4.59375 0 L 1.984375 0 L 1.984375 -14.75 L 4.234375 -14.75 L 10.09375 -4.96875 L 15.84375 -14.75 L 18.109375 -14.75 L 18.125 0 Z M 15.53125 0 "/></g></g></g><g fill="#cb6ce6" fill-opacity="1"><g transform="translate(180.047494, 236.522768)"><g><path d="M 11.546875 -3.421875 L 4.171875 -3.421875 L 2.71875 0 L -0.109375 0 L 6.53125 -14.75 L 9.234375 -14.75 L 15.890625 0 L 13.03125 0 Z M 10.640625 -5.5625 L 7.859375 -12.015625 L 5.09375 -5.5625 Z M 10.640625 -5.5625 "/></g></g></g><g fill="#cb6ce6" fill-opacity="1"><g transform="translate(195.837903, 236.522768)"><g><path d="M 11.640625 0 L 8.625 -4.328125 C 8.5 -4.304688 8.304688 -4.296875 8.046875 -4.296875 L 4.71875 -4.296875 L 4.71875 0 L 1.984375 0 L 1.984375 -14.75 L 8.046875 -14.75 C 9.328125 -14.75 10.441406 -14.535156 11.390625 -14.109375 C 12.335938 -13.691406 13.0625 -13.085938 13.5625 -12.296875 C 14.070312 -11.515625 14.328125 -10.582031 14.328125 -9.5 C 14.328125 -8.394531 14.054688 -7.441406 13.515625 -6.640625 C 12.972656 -5.835938 12.195312 -5.238281 11.1875 -4.84375 L 14.59375 0 Z M 11.578125 -9.5 C 11.578125 -10.445312 11.265625 -11.171875 10.640625 -11.671875 C 10.023438 -12.179688 9.117188 -12.4375 7.921875 -12.4375 L 4.71875 -12.4375 L 4.71875 -6.5625 L 7.921875 -6.5625 C 9.117188 -6.5625 10.023438 -6.816406 10.640625 -7.328125 C 11.265625 -7.835938 11.578125 -8.5625 11.578125 -9.5 Z M 11.578125 -9.5 "/></g></g></g><g fill="#cb6ce6" fill-opacity="1"><g transform="translate(211.248836, 236.522768)"><g><path d="M 4.96875 -12.4375 L 0.078125 -12.4375 L 0.078125 -14.75 L 12.609375 -14.75 L 12.609375 -12.4375 L 7.71875 -12.4375 L 7.71875 0 L 4.96875 0 Z M 4.96875 -12.4375 "/></g></g></g><g fill="#cb6ce6" fill-opacity="1"><g transform="translate(223.940185, 236.522768)"><g><path d="M 1.984375 -14.75 L 4.71875 -14.75 L 4.71875 0 L 1.984375 0 Z M 1.984375 -14.75 "/></g></g></g><g fill="#cb6ce6" fill-opacity="1"><g transform="translate(230.665339, 236.522768)"><g><path d="M 15.09375 -14.75 L 15.09375 0 L 12.84375 0 L 4.703125 -9.984375 L 4.703125 0 L 1.984375 0 L 1.984375 -14.75 L 4.234375 -14.75 L 12.375 -4.765625 L 12.375 -14.75 Z M 15.09375 -14.75 "/></g></g></g><g fill="#cb6ce6" fill-opacity="1"><g transform="translate(247.741742, 236.522768)"><g><path d="M 13.046875 -2.296875 L 13.046875 0 L 1.984375 0 L 1.984375 -14.75 L 12.75 -14.75 L 12.75 -12.453125 L 4.71875 -12.453125 L 4.71875 -8.625 L 11.84375 -8.625 L 11.84375 -6.359375 L 4.71875 -6.359375 L 4.71875 -2.296875 Z M 13.046875 -2.296875 "/></g></g></g><g fill="#cb6ce6" fill-opacity="1"><g transform="translate(261.866669, 236.522768)"><g><path d="M 13.453125 -2.3125 L 13.453125 0 L 0.859375 0 L 0.859375 -1.828125 L 9.546875 -12.4375 L 1.015625 -12.4375 L 1.015625 -14.75 L 13.171875 -14.75 L 13.171875 -12.921875 L 4.484375 -2.3125 Z M 13.453125 -2.3125 "/></g></g></g><g fill="#cb6ce6" fill-opacity="1"><g transform="translate(197.968002, 192.505298)"><g><path d="M 47.90625 0 L 47.90625 -17.875 C 47.90625 -20.082031 47.988281 -22.347656 48.15625 -24.671875 C 48.332031 -27.003906 48.515625 -28.960938 48.703125 -30.546875 C 48.890625 -32.128906 49.007812 -33.140625 49.0625 -33.578125 L 48.78125 -33.578125 L 39.625 0 L 27.15625 0 L 17.9375 -33.5 L 17.65625 -33.5 C 17.695312 -33.070312 17.828125 -32.078125 18.046875 -30.515625 C 18.265625 -28.953125 18.46875 -27.003906 18.65625 -24.671875 C 18.851562 -22.347656 18.953125 -20.082031 18.953125 -17.875 L 18.953125 0 L 4.328125 0 L 4.328125 -49.5625 L 26.796875 -49.5625 L 34.296875 -20.96875 L 34.578125 -20.96875 L 42 -49.5625 L 63.6875 -49.5625 L 63.6875 0 Z M 47.90625 0 "/></g></g></g><g fill="#cb6ce6" fill-opacity="1"><g transform="translate(129.023963, 197.052929)"><g><path d="M 6.828125 0 L 6.828125 -55.875 L 24.765625 -55.875 L 24.765625 0 Z M 6.828125 0 "/></g></g></g></svg>